<svg width="737" height="883" viewBox="0 0 737 883" fill="none" xmlns="http://www.w3.org/2000/svg">
<g clip-path="url(#clip0_24_113)">
<path d="M255 403L279.5 459.5L368 535.5L459.5 466.5L476 403C435.187 383.967 409.671 378.487 363 371L255 403Z" fill="black"/>
<path d="M317.5 507.5V400.5L413.5 394L444 507.5H317.5Z" fill="#CCCCCC" stroke="black" stroke-width="4"/>
<path d="M435 797L637.5 801C716.778 796.996 710.037 716.5 670 646C629.963 575.5 627 480.5 491 445.5C292.052 520.328 331.894 615.662 435 797Z" fill="#959595" stroke="black" stroke-width="8" stroke-linecap="round"/>
<path d="M302.023 797L99.5234 801C20.2452 796.996 26.9864 716.5 67.0234 646C107.06 575.5 110.023 480.5 246.023 445.5C444.971 520.328 405.129 615.662 302.023 797Z" fill="#959595" stroke="black" stroke-width="8" stroke-linecap="round"/>
<path d="M617 692.5C643.045 691.665 655.963 695.33 673 716.5M621 686C639.79 678.703 649.638 678.297 665.5 686" stroke="black" stroke-width="4" stroke-linecap="round"/>
<path d="M117 692.5C90.9548 691.665 78.0368 695.33 61 716.5M113 686C94.2103 678.703 84.3625 678.297 68.5 686" stroke="black" stroke-width="4" stroke-linecap="round"/>
<path d="M368 100C375.792 100 382 106.104 382 113.5C382 120.896 375.792 127 368 127C360.208 127 354 120.896 354 113.5C354 106.104 360.208 100 368 100Z" fill="#D9D9D9" stroke="black" stroke-width="4"/>
<path d="M491.5 426.5C503.194 387.526 457.012 385.363 376 381C376 381 478.076 392.5 470 414.5C461.924 436.5 372.5 478.5 361 540C413.893 504.115 442.466 483.853 507 449.5C506.407 437.702 502.93 432.717 491.5 426.5Z" fill="#BBBBBB" stroke="black" stroke-width="8" stroke-linecap="round"/>
<path d="M245.5 426.5C233.806 387.526 279.988 385.363 361 381C361 381 258.924 392.5 267 414.5C275.076 436.5 364.5 478.5 376 540C323.107 504.115 294.534 483.853 230 449.5C230.593 437.702 234.07 432.717 245.5 426.5Z" fill="#BBBBBB" stroke="black" stroke-width="8" stroke-linecap="round"/>
<path d="M221 281C233.811 276.709 239.833 271.779 247.5 256.5L292.5 204L275.5 332.5C263.268 315.891 258.325 306.23 260.5 287C252.119 304.748 245.793 313.099 230 323.5C226.009 310.261 227.587 302.618 238.5 288.5C226.484 291.78 223.79 288.774 221 281Z" fill="#555555"/>
<path d="M515.5 281C496.274 274.816 489.581 267.008 481 249.5L434.5 218L464 330C472.762 315.55 476.249 306.551 477 287C489.695 318.128 493.619 321.245 509.5 331.5C506.757 309.955 509.001 301.32 497 287C504.604 290.631 508.693 290.064 515.5 281Z" fill="#555555"/>
<path d="M456 407L429 399L427 349L474.5 323C473.213 347.883 472.794 361.708 485 381C474.694 382.402 469.073 382.052 459.5 379C451.885 389.96 451.418 396.093 456 407Z" fill="#555555"/>
<path d="M335 378.5L280.5 406C284.154 395.144 283.961 388.847 277 377C266.288 386.686 260.54 385.595 250.5 378.5C265.254 364.86 265.684 354.649 260.5 334.5L308.5 338L335 378.5Z" fill="#555555"/>
<path d="M221 281C233.811 276.709 239.833 271.779 247.5 256.5L292.5 204L275.5 332.5C263.268 315.891 258.325 306.23 260.5 287C252.119 304.748 245.793 313.099 230 323.5C226.009 310.261 227.587 302.618 238.5 288.5C226.484 291.78 223.79 288.774 221 281Z" stroke="black" stroke-width="8"/>
<path d="M515.5 281C496.274 274.816 489.581 267.008 481 249.5L434.5 218L464 330C472.762 315.55 476.249 306.551 477 287C489.695 318.128 493.619 321.245 509.5 331.5C506.757 309.955 509.001 301.32 497 287C504.604 290.631 508.693 290.064 515.5 281Z" stroke="black" stroke-width="8"/>
<path d="M456 407L429 399L427 349L474.5 323C473.213 347.883 472.794 361.708 485 381C474.694 382.402 469.073 382.052 459.5 379C451.885 389.96 451.418 396.093 456 407Z" stroke="black" stroke-width="8"/>
<path d="M335 378.5L280.5 406C284.154 395.144 283.961 388.847 277 377C266.288 386.686 260.54 385.595 250.5 378.5C265.254 364.86 265.684 354.649 260.5 334.5L308.5 338L335 378.5Z" stroke="black" stroke-width="8"/>
<path d="M280.501 353C244.931 370.128 219.104 284.147 261.001 289V306.5L280.501 353Z" fill="#CCCCCC"/>
<path d="M496.001 315.5C492.641 329.5 485.295 358.96 452.001 354L478 288.5C490 288.5 499.361 301.5 496.001 315.5Z" fill="#CCCCCC"/>
<path d="M280.501 353C244.931 370.128 219.104 284.147 261.001 289V306.5L280.501 353Z" stroke="black" stroke-width="4"/>
<path d="M496.001 315.5C492.641 329.5 485.295 358.96 452.001 354L478 288.5C490 288.5 499.361 301.5 496.001 315.5Z" stroke="black" stroke-width="4"/>
<path d="M367.5 193C419.466 193 463 245.859 463 313C463 348.595 449.153 380.335 429.516 402.337C412.531 421.367 387.191 433 367.5 433C358.021 433 345.978 428.706 333.896 421.812C321.905 414.971 310.355 405.844 301.931 396.777C281.59 374.887 272 349.667 272 313C272 245.859 315.534 193 367.5 193Z" fill="#DDDDDD" stroke="black" stroke-width="8"/>
<path d="M331 374C362.603 381.607 379.163 380.73 406 367M406 361C409.575 364.741 411.066 366.589 413 369.5" stroke="black" stroke-width="6" stroke-linecap="round"/>
<path d="M354.5 348.5C364.454 355.021 370.046 355.738 380 348.5" stroke="black" stroke-width="6" stroke-linecap="round"/>
<path d="M348.5 268.5C325.346 256.942 312.538 257.407 290 268.5C311.862 266.505 323.569 267.908 342 281.5L348.5 268.5Z" fill="black" stroke="black" stroke-width="4" stroke-linecap="round"/>
<path d="M387 268.495C410.154 256.937 422.962 257.402 445.5 268.495C423.638 266.501 411.931 267.904 393.5 281.495L387 268.495Z" fill="black" stroke="black" stroke-width="4" stroke-linecap="round"/>
<path d="M423.1 271.554C437.178 270.681 452.465 273.257 472.764 278.599L475.258 279.255L474.983 281.819L473.483 295.819L473.449 296.136L473.35 296.438C472.778 298.176 471.619 299.353 470.492 300.163C469.407 300.942 468.17 301.506 467.223 301.933C466.16 302.411 465.435 302.73 464.861 303.097C464.625 303.248 464.486 303.365 464.406 303.443C462.582 318.439 458.409 329.298 451.438 336.463C444.302 343.798 434.674 346.82 423.047 347L422.917 347.002L422.788 346.992C411.043 346.159 400.902 345.223 392.828 338.861C384.894 332.609 379.483 321.59 375.332 302.37L373.14 301H364.86L362.667 302.37C358.516 321.59 353.106 332.609 345.172 338.861C337.098 345.223 326.957 346.159 315.212 346.992L315.083 347.002L314.953 347C303.326 346.82 293.698 343.798 286.562 336.463C279.591 329.298 275.417 318.439 273.593 303.443C273.513 303.365 273.375 303.248 273.139 303.097C272.565 302.73 271.84 302.411 270.777 301.933C269.83 301.506 268.593 300.942 267.508 300.163C266.381 299.353 265.222 298.176 264.65 296.438L264.551 296.136L264.517 295.819L263.017 281.819L262.742 279.255L265.236 278.599C285.535 273.257 300.822 270.681 314.9 271.554C328.814 272.416 341.314 276.629 356.137 284.443L368.778 283.508L369 283.492L369.222 283.508L381.862 284.443C396.685 276.629 409.186 272.416 423.1 271.554ZM317.336 282.5C300.311 280.609 278.336 289 285.335 312.5C289.671 327.06 301.144 335.928 316.336 336C333.741 336.083 344.336 326.5 348.836 305.5C351.53 292.93 335.336 284.5 317.336 282.5ZM452.665 312.5C459.664 289 437.689 280.609 420.664 282.5C402.664 284.5 386.47 292.93 389.164 305.5C393.664 326.5 404.259 336.083 421.664 336C436.856 335.928 448.329 327.06 452.665 312.5Z" fill="#EEEEEE"/>
<path fill-rule="evenodd" clip-rule="evenodd" d="M423.1 271.554L422.976 269.558V269.558L423.1 271.554ZM472.764 278.599L472.255 280.533L472.255 280.533L472.764 278.599ZM475.258 279.255L477.246 279.468L477.429 277.758L475.767 277.321L475.258 279.255ZM474.983 281.819L476.972 282.032L476.972 282.032L474.983 281.819ZM473.483 295.819L475.472 296.034L475.472 296.032L473.483 295.819ZM473.449 296.136L475.348 296.763L475.415 296.561L475.438 296.351L473.449 296.136ZM473.35 296.438L471.45 295.811L471.45 295.812L473.35 296.438ZM470.492 300.163L471.659 301.787L471.659 301.787L470.492 300.163ZM467.223 301.933L466.402 300.109H466.402L467.223 301.933ZM464.861 303.097L463.784 301.412L463.784 301.412L464.861 303.097ZM464.406 303.443L463.003 302.018L462.505 302.509L462.421 303.202L464.406 303.443ZM451.438 336.463L452.872 337.858L452.872 337.858L451.438 336.463ZM423.047 347L423.077 349L423.078 349L423.047 347ZM422.917 347.002L422.766 348.996L422.856 349.003L422.947 349.002L422.917 347.002ZM422.788 346.992L422.939 344.998L422.93 344.997L422.788 346.992ZM392.828 338.861L391.59 340.432L391.59 340.432L392.828 338.861ZM375.332 302.37L377.287 301.948L377.109 301.122L376.392 300.674L375.332 302.37ZM373.14 301L374.2 299.304L373.713 299H373.14V301ZM364.86 301V299H364.287L363.801 299.304L364.86 301ZM362.667 302.37L361.607 300.674L360.89 301.122L360.712 301.948L362.667 302.37ZM345.172 338.861L346.41 340.432L346.41 340.432L345.172 338.861ZM315.212 346.992L315.07 344.997L315.061 344.998L315.212 346.992ZM315.083 347.002L315.053 349.002L315.144 349.003L315.234 348.996L315.083 347.002ZM314.953 347L314.922 349L314.923 349L314.953 347ZM286.562 336.463L285.128 337.858L285.128 337.858L286.562 336.463ZM273.593 303.443L275.578 303.202L275.494 302.508L274.995 302.018L273.593 303.443ZM273.139 303.097L274.216 301.412L274.216 301.412L273.139 303.097ZM270.777 301.933L269.957 303.757L269.957 303.757L270.777 301.933ZM267.508 300.163L266.341 301.787L266.341 301.787L267.508 300.163ZM264.65 296.438L266.55 295.812L266.55 295.811L264.65 296.438ZM264.551 296.136L262.562 296.351L262.585 296.561L262.652 296.763L264.551 296.136ZM264.517 295.819L262.528 296.032L262.528 296.034L264.517 295.819ZM263.017 281.819L261.028 282.032L261.028 282.032L263.017 281.819ZM262.742 279.255L262.233 277.321L260.571 277.758L260.754 279.468L262.742 279.255ZM265.236 278.599L265.745 280.533L265.745 280.533L265.236 278.599ZM314.9 271.554L315.024 269.558L315.024 269.558L314.9 271.554ZM356.137 284.443L355.204 286.213L355.712 286.48L356.284 286.438L356.137 284.443ZM368.778 283.508L368.638 281.513L368.631 281.513L368.778 283.508ZM369 283.492L369.141 281.497L369 281.487L368.859 281.497L369 283.492ZM369.222 283.508L369.369 281.513L369.362 281.513L369.222 283.508ZM381.862 284.443L381.715 286.438L382.287 286.48L382.795 286.213L381.862 284.443ZM317.336 282.5L317.557 280.512V280.512L317.336 282.5ZM285.335 312.5L283.418 313.071V313.071L285.335 312.5ZM316.336 336L316.326 338H316.326L316.336 336ZM348.836 305.5L350.792 305.919V305.919L348.836 305.5ZM452.665 312.5L454.582 313.071V313.071L452.665 312.5ZM420.664 282.5L420.443 280.512V280.512L420.664 282.5ZM389.164 305.5L387.208 305.919V305.919L389.164 305.5ZM421.664 336L421.674 338V338L421.664 336ZM423.1 271.554L423.223 273.55C436.976 272.698 452.013 275.207 472.255 280.533L472.764 278.599L473.273 276.664C452.916 271.308 437.38 268.665 422.976 269.558L423.1 271.554ZM472.764 278.599L472.255 280.533L474.749 281.189L475.258 279.255L475.767 277.321L473.273 276.664L472.764 278.599ZM475.258 279.255L473.269 279.042L472.995 281.607L474.983 281.819L476.972 282.032L477.246 279.468L475.258 279.255ZM474.983 281.819L472.995 281.606L471.495 295.606L473.483 295.819L475.472 296.032L476.972 282.032L474.983 281.819ZM473.483 295.819L471.495 295.605L471.461 295.921L473.449 296.136L475.438 296.351L475.472 296.034L473.483 295.819ZM473.449 296.136L471.55 295.509L471.45 295.811L473.35 296.438L475.249 297.064L475.348 296.763L473.449 296.136ZM473.35 296.438L471.45 295.812C471.053 297.018 470.24 297.881 469.325 298.539L470.492 300.163L471.659 301.787C472.999 300.825 474.502 299.334 475.249 297.063L473.35 296.438ZM470.492 300.163L469.325 298.539C468.425 299.186 467.363 299.677 466.402 300.109L467.223 301.933L468.043 303.757C468.977 303.336 470.39 302.699 471.659 301.787L470.492 300.163ZM467.223 301.933L466.402 300.109C465.406 300.557 464.512 300.946 463.784 301.412L464.861 303.097L465.938 304.782C466.358 304.514 466.915 304.264 468.043 303.757L467.223 301.933ZM464.861 303.097L463.784 301.412C463.455 301.622 463.201 301.823 463.003 302.018L464.406 303.443L465.81 304.868C465.771 304.906 465.795 304.874 465.939 304.782L464.861 303.097ZM464.406 303.443L462.421 303.202C460.622 317.992 456.542 328.35 450.005 335.068L451.438 336.463L452.872 337.858C460.277 330.247 464.542 318.886 466.392 303.685L464.406 303.443ZM451.438 336.463L450.005 335.068C443.357 341.901 434.315 344.825 423.016 345L423.047 347L423.078 349C435.033 348.815 445.246 345.695 452.872 337.858L451.438 336.463ZM423.047 347L423.017 345L422.887 345.002L422.917 347.002L422.947 349.002L423.077 349L423.047 347ZM422.917 347.002L423.068 345.008L422.939 344.998L422.788 346.992L422.637 348.986L422.766 348.996L422.917 347.002ZM422.788 346.992L422.93 344.997C411.08 344.156 401.581 343.212 394.066 337.29L392.828 338.861L391.59 340.432C400.222 347.234 411.006 348.161 422.646 348.987L422.788 346.992ZM392.828 338.861L394.066 337.29C386.702 331.488 381.414 321.06 377.287 301.948L375.332 302.37L373.377 302.792C377.551 322.121 383.085 333.73 391.59 340.432L392.828 338.861ZM375.332 302.37L376.392 300.674L374.2 299.304L373.14 301L372.08 302.696L374.272 304.066L375.332 302.37ZM373.14 301V299H364.86V301V303H373.14V301ZM364.86 301L363.801 299.304L361.607 300.674L362.667 302.37L363.727 304.066L365.92 302.696L364.86 301ZM362.667 302.37L360.712 301.948C356.585 321.06 351.298 331.488 343.934 337.29L345.172 338.861L346.41 340.432C354.915 333.73 360.448 322.121 364.622 302.792L362.667 302.37ZM345.172 338.861L343.934 337.29C336.419 343.212 326.92 344.156 315.07 344.997L315.212 346.992L315.354 348.987C326.994 348.161 337.778 347.234 346.41 340.432L345.172 338.861ZM315.212 346.992L315.061 344.998L314.932 345.008L315.083 347.002L315.234 348.996L315.363 348.986L315.212 346.992ZM315.083 347.002L315.113 345.002L314.983 345L314.953 347L314.923 349L315.053 349.002L315.083 347.002ZM314.953 347L314.984 345C303.685 344.825 294.643 341.901 287.995 335.068L286.562 336.463L285.128 337.858C292.754 345.695 302.967 348.815 314.922 349L314.953 347ZM286.562 336.463L287.995 335.068C281.458 328.35 277.377 317.992 275.578 303.202L273.593 303.443L271.607 303.685C273.457 318.886 277.723 330.247 285.128 337.858L286.562 336.463ZM273.593 303.443L274.995 302.018C274.8 301.826 274.549 301.624 274.216 301.412L273.139 303.097L272.061 304.782C272.201 304.871 272.225 304.903 272.19 304.869L273.593 303.443ZM273.139 303.097L274.216 301.412C273.488 300.946 272.594 300.557 271.598 300.109L270.777 301.933L269.957 303.757C271.085 304.264 271.642 304.514 272.061 304.782L273.139 303.097ZM270.777 301.933L271.598 300.109C270.637 299.677 269.575 299.186 268.675 298.539L267.508 300.163L266.341 301.787C267.61 302.699 269.023 303.336 269.957 303.757L270.777 301.933ZM267.508 300.163L268.675 298.539C267.76 297.881 266.947 297.018 266.55 295.812L264.65 296.438L262.751 297.063C263.498 299.334 265.001 300.825 266.341 301.787L267.508 300.163ZM264.65 296.438L266.55 295.811L266.45 295.509L264.551 296.136L262.652 296.763L262.751 297.064L264.65 296.438ZM264.551 296.136L266.539 295.921L266.505 295.605L264.517 295.819L262.528 296.034L262.562 296.351L264.551 296.136ZM264.517 295.819L266.505 295.606L265.005 281.606L263.017 281.819L261.028 282.032L262.528 296.032L264.517 295.819ZM263.017 281.819L265.005 281.607L264.731 279.042L262.742 279.255L260.754 279.468L261.028 282.032L263.017 281.819ZM262.742 279.255L263.251 281.189L265.745 280.533L265.236 278.599L264.727 276.664L262.233 277.321L262.742 279.255ZM265.236 278.599L265.745 280.533C285.987 275.207 301.024 272.698 314.777 273.55L314.9 271.554L315.024 269.558C300.62 268.665 285.084 271.308 264.727 276.664L265.236 278.599ZM314.9 271.554L314.777 273.55C328.321 274.389 340.542 278.483 355.204 286.213L356.137 284.443L357.069 282.674C342.087 274.776 329.307 270.442 315.024 269.558L314.9 271.554ZM356.137 284.443L356.284 286.438L368.926 285.502L368.778 283.508L368.631 281.513L355.989 282.449L356.137 284.443ZM368.778 283.508L368.919 285.503L369.141 285.487L369 283.492L368.859 281.497L368.638 281.513L368.778 283.508ZM369 283.492L368.859 285.487L369.081 285.503L369.222 283.508L369.362 281.513L369.141 281.497L369 283.492ZM369.222 283.508L369.074 285.502L381.715 286.438L381.862 284.443L382.01 282.449L369.369 281.513L369.222 283.508ZM381.862 284.443L382.795 286.213C397.458 278.483 409.679 274.389 423.223 273.55L423.1 271.554L422.976 269.558C408.693 270.443 395.913 274.775 380.93 282.674L381.862 284.443ZM317.336 282.5L317.557 280.512C308.714 279.53 298.428 281.184 291.167 286.348C287.503 288.955 284.585 292.478 283.089 297.005C281.595 301.529 281.576 306.886 283.418 313.071L285.335 312.5L287.252 311.929C285.594 306.364 285.698 301.86 286.887 298.26C288.075 294.663 290.403 291.801 293.486 289.608C299.719 285.174 308.933 283.579 317.115 284.488L317.336 282.5ZM285.335 312.5L283.418 313.071C287.998 328.449 300.227 337.923 316.326 338L316.336 336L316.345 334C302.062 333.932 291.344 325.67 287.252 311.929L285.335 312.5ZM316.336 336L316.326 338C325.42 338.043 332.95 335.55 338.788 330.12C344.583 324.73 348.493 316.646 350.792 305.919L348.836 305.5L346.88 305.081C344.679 315.354 341.041 322.561 336.063 327.192C331.127 331.783 324.657 334.04 316.345 334L316.336 336ZM348.836 305.5L350.792 305.919C352.381 298.501 348.266 292.531 341.947 288.366C335.636 284.208 326.752 281.534 317.557 280.512L317.336 282.5L317.115 284.488C325.92 285.466 334.132 288.007 339.745 291.706C345.349 295.399 347.984 299.93 346.88 305.081L348.836 305.5ZM452.665 312.5L454.582 313.071C456.424 306.886 456.405 301.529 454.911 297.005C453.415 292.478 450.497 288.955 446.833 286.348C439.572 281.184 429.286 279.53 420.443 280.512L420.664 282.5L420.885 284.488C429.067 283.579 438.281 285.174 444.514 289.608C447.597 291.801 449.925 294.663 451.113 298.26C452.302 301.86 452.406 306.364 450.748 311.929L452.665 312.5ZM420.664 282.5L420.443 280.512C411.248 281.534 402.364 284.208 396.053 288.366C389.734 292.531 385.619 298.501 387.208 305.919L389.164 305.5L391.12 305.081C390.016 299.93 392.651 295.399 398.255 291.706C403.868 288.007 412.08 285.466 420.885 284.488L420.664 282.5ZM389.164 305.5L387.208 305.919C389.507 316.646 393.417 324.73 399.212 330.12C405.05 335.55 412.58 338.043 421.674 338L421.664 336L421.655 334C413.343 334.04 406.873 331.783 401.937 327.192C396.959 322.561 393.321 315.354 391.12 305.081L389.164 305.5ZM421.664 336L421.674 338C437.773 337.923 450.002 328.449 454.582 313.071L452.665 312.5L450.748 311.929C446.656 325.67 435.938 333.932 421.655 334L421.664 336Z" fill="black"/>
<circle cx="320.5" cy="304.5" r="8.5" fill="black"/>
<circle cx="415.5" cy="304.5" r="8.5" fill="black"/>
<path d="M487 260C394.14 192.694 341.8 196.212 248 260C249.785 150.281 286.42 110 368.747 110C451.075 110 484.183 154.645 487 260Z" fill="#CCCCCC" stroke="black" stroke-width="8"/>
<path d="M368 109.5C246.501 109.5 274 238 274 238C345.083 194.322 386.164 194.132 462.5 238C462.5 238 489.5 109.5 368 109.5Z" fill="#DDDDDD" stroke="black" stroke-width="4" stroke-linecap="round"/>
<path d="M369.004 234.712C299.194 234.712 255.501 306.874 255.5 255.5C331.5 190.5 396.5 185.5 477.5 253.5C477.5 308.506 438.815 234.712 369.004 234.712Z" fill="#A4A4A4" stroke="black" stroke-width="8"/>
<path d="M468 337.5C477.7 328.017 478.973 323.356 472 316.5M478 302C483.596 301.966 485.684 303.959 486 314M263.5 316C259.131 323.709 256.258 328.024 267 336M259.5 302.5C252.655 302.055 250.242 303.735 250.5 313" stroke="black" stroke-width="4" stroke-linecap="round"/>
<path d="M331.5 376C331.5 376 348.036 391.862 361.5 393.5C381.816 395.971 407 367.5 407 367.5" stroke="black" stroke-width="4" stroke-linecap="round"/>
<rect x="113" y="473" width="510" height="324" rx="11" fill="#D6D6D6" stroke="black" stroke-width="8"/>
<rect x="-147" y="800" width="863" height="189" fill="#AAAAAA" stroke="black" stroke-width="8"/>
<line x1="367" y1="207" x2="367" y2="110" stroke="black" stroke-width="4"/>
<path d="M339.21 144.989C360.551 142.736 372.849 142.594 395.792 144.989L395.896 145H396C399.866 145 403 148.134 403 152V184C403 187.85 399.891 190.972 396.047 190.998C373.804 189.365 361.215 189.211 338.945 190.998C335.105 190.968 332 187.847 332 184V152C332 148.134 335.134 145 339 145H339.105L339.21 144.989Z" fill="white" stroke="black" stroke-width="4"/>
</g>
<defs>
<clipPath id="clip0_24_113">
<rect width="737" height="883" fill="white"/>
</clipPath>
</defs>
</svg>
