<?xml version="1.0" encoding="UTF-8" standalone="no"?>
<!DOCTYPE svg PUBLIC "-//W3C//DTD SVG 1.1//EN"
 "http://www.w3.org/Graphics/SVG/1.1/DTD/svg11.dtd">
<!-- Generated by graphviz version 12.2.1 (20241206.2353)
 -->
<!-- Title: MarbleDependencyGraph Pages: 1 -->
<svg width="1289pt" height="698pt"
 viewBox="17.28 17.28 1271.83 680.33" xmlns="http://www.w3.org/2000/svg" xmlns:xlink="http://www.w3.org/1999/xlink">
<g id="graph0" class="graph" transform="scale(1 1) rotate(0) translate(31.68 665.93)">
<title>MarbleDependencyGraph</title>
<polygon fill="#fbfaf7" stroke="none" points="-14.4,14.4 -14.4,-648.65 1240.15,-648.65 1240.15,14.4 -14.4,14.4"/>
<text text-anchor="start" x="383" y="-604.55" font-family="Arial" font-weight="bold" font-size="26.00">Marble workspace dependency graph</text>
<text text-anchor="start" x="441.5" y="-582.85" font-family="Arial" font-size="12.00" fill="#6f6a60">Transitive&#45;reduced workspace package graph from package.json</text>
<g id="clust1" class="cluster">
<title>cluster_entrypoints</title>
<path fill="#eef6fb" stroke="#d6e3f0" stroke-width="1.2" d="M29,-217C29,-217 566,-217 566,-217 572,-217 578,-223 578,-229 578,-229 578,-432 578,-432 578,-438 572,-444 566,-444 566,-444 29,-444 29,-444 23,-444 17,-438 17,-432 17,-432 17,-229 17,-229 17,-223 23,-217 29,-217"/>
<text text-anchor="middle" x="297.5" y="-426.7" font-family="Arial" font-size="14.00">Entrypoints</text>
</g>
<g id="clust2" class="cluster">
<title>cluster_core</title>
<path fill="#f6f2df" stroke="#dfdcc8" stroke-width="1.2" d="M224.25,-8C224.25,-8 980.5,-8 980.5,-8 986.5,-8 992.5,-14 992.5,-20 992.5,-20 992.5,-118 992.5,-118 992.5,-124 986.5,-130 980.5,-130 980.5,-130 224.25,-130 224.25,-130 218.25,-130 212.25,-124 212.25,-118 212.25,-118 212.25,-20 212.25,-20 212.25,-14 218.25,-8 224.25,-8"/>
<text text-anchor="middle" x="602.38" y="-112.7" font-family="Arial" font-size="14.00">Core runtime</text>
</g>
<g id="clust3" class="cluster">
<title>cluster_foundation</title>
<path fill="#eff7ed" stroke="#d7e4d4" stroke-width="1.2" d="M230.25,-444C230.25,-444 1205.75,-444 1205.75,-444 1211.75,-444 1217.75,-450 1217.75,-456 1217.75,-456 1217.75,-554 1217.75,-554 1217.75,-560 1211.75,-566 1205.75,-566 1205.75,-566 230.25,-566 230.25,-566 224.25,-566 218.25,-560 218.25,-554 218.25,-554 218.25,-456 218.25,-456 218.25,-450 224.25,-444 230.25,-444"/>
<text text-anchor="middle" x="718" y="-548.7" font-family="Arial" font-size="14.00">Foundation</text>
</g>
<g id="clust4" class="cluster">
<title>cluster_unwired</title>
<path fill="#fbefed" stroke="#e9d4d2" stroke-width="1.2" d="M20,-444C20,-444 164.25,-444 164.25,-444 170.25,-444 176.25,-450 176.25,-456 176.25,-456 176.25,-554 176.25,-554 176.25,-560 170.25,-566 164.25,-566 164.25,-566 20,-566 20,-566 14,-566 8,-560 8,-554 8,-554 8,-456 8,-456 8,-450 14,-444 20,-444"/>
<text text-anchor="middle" x="92.12" y="-548.7" font-family="Arial" font-size="14.00">Currently isolated</text>
</g>
<!-- web -->
<g id="node1" class="node">
<title>web</title>
<path fill="#fffefd" stroke="none" stroke-width="1.35" d="M137.25,-402C137.25,-402 47,-402 47,-402 41,-402 35,-396 35,-390 35,-390 35,-352 35,-352 35,-346 41,-340 47,-340 47,-340 137.25,-340 137.25,-340 143.25,-340 149.25,-346 149.25,-352 149.25,-352 149.25,-390 149.25,-390 149.25,-396 143.25,-402 137.25,-402"/>
<polygon fill="#dceeff" stroke="none" points="35,-368 35,-402 149.25,-402 149.25,-368 35,-368"/>
<text text-anchor="start" x="43" y="-380.75" font-family="Arial" font-weight="bold" font-size="15.00">@marble/web</text>
<text text-anchor="start" x="71.12" y="-350.5" font-family="Arial" font-size="10.00" fill="#5f6b75">apps/web</text>
</g>
<!-- sdk -->
<g id="node5" class="node">
<title>sdk</title>
<path fill="#fffefd" stroke="none" stroke-width="1.35" d="M328.75,-88C328.75,-88 242.25,-88 242.25,-88 236.25,-88 230.25,-82 230.25,-76 230.25,-76 230.25,-38 230.25,-38 230.25,-32 236.25,-26 242.25,-26 242.25,-26 328.75,-26 328.75,-26 334.75,-26 340.75,-32 340.75,-38 340.75,-38 340.75,-76 340.75,-76 340.75,-82 334.75,-88 328.75,-88"/>
<polygon fill="#fff1b8" stroke="none" points="230.25,-54 230.25,-88 340.75,-88 340.75,-54 230.25,-54"/>
<text text-anchor="start" x="238.25" y="-66.75" font-family="Arial" font-weight="bold" font-size="15.00">@marble/sdk</text>
<text text-anchor="start" x="255.12" y="-36.5" font-family="Arial" font-size="10.00" fill="#6b664f">packages/sdk</text>
</g>
<!-- web&#45;&gt;sdk -->
<g id="edge1" class="edge">
<title>web&#45;&gt;sdk</title>
<path fill="none" stroke="#9d988e" stroke-width="1.25" d="M148.98,-360.67C200.62,-360.67 268.75,-360.67 268.75,-360.67 268.75,-360.67 268.75,-96.18 268.75,-96.18"/>
<polygon fill="#9d988e" stroke="#9d988e" stroke-width="1.25" points="271.03,-96.18 268.75,-89.68 266.48,-96.18 271.03,-96.18"/>
</g>
<!-- ui -->
<g id="node12" class="node">
<title>ui</title>
<path fill="#fffefd" stroke="none" stroke-width="1.35" d="M322.75,-524C322.75,-524 248.25,-524 248.25,-524 242.25,-524 236.25,-518 236.25,-512 236.25,-512 236.25,-474 236.25,-474 236.25,-468 242.25,-462 248.25,-462 248.25,-462 322.75,-462 322.75,-462 328.75,-462 334.75,-468 334.75,-474 334.75,-474 334.75,-512 334.75,-512 334.75,-518 328.75,-524 322.75,-524"/>
<polygon fill="#ddf0d6" stroke="none" points="236.25,-490 236.25,-524 334.75,-524 334.75,-490 236.25,-490"/>
<text text-anchor="start" x="244.25" y="-502.75" font-family="Arial" font-weight="bold" font-size="15.00">@marble/ui</text>
<text text-anchor="start" x="259.25" y="-472.5" font-family="Arial" font-size="10.00" fill="#5e6d59">packages/ui</text>
</g>
<!-- web&#45;&gt;ui -->
<g id="edge2" class="edge">
<title>web&#45;&gt;ui</title>
<path fill="none" stroke="#9d988e" stroke-width="1.25" d="M149.13,-381.33C211.2,-381.33 301.75,-381.33 301.75,-381.33 301.75,-381.33 301.75,-453.8 301.75,-453.8"/>
<polygon fill="#9d988e" stroke="#9d988e" stroke-width="1.25" points="299.48,-453.8 301.75,-460.3 304.03,-453.8 299.48,-453.8"/>
</g>
<!-- cli -->
<g id="node2" class="node">
<title>cli</title>
<path fill="#fffefd" stroke="none" stroke-width="1.35" d="M131.25,-297C131.25,-297 53,-297 53,-297 47,-297 41,-291 41,-285 41,-285 41,-247 41,-247 41,-241 47,-235 53,-235 53,-235 131.25,-235 131.25,-235 137.25,-235 143.25,-241 143.25,-247 143.25,-247 143.25,-285 143.25,-285 143.25,-291 137.25,-297 131.25,-297"/>
<polygon fill="#dceeff" stroke="none" points="41,-263 41,-297 143.25,-297 143.25,-263 41,-263"/>
<text text-anchor="start" x="49" y="-275.75" font-family="Arial" font-weight="bold" font-size="15.00">@marble/cli</text>
<text text-anchor="start" x="64.75" y="-245.5" font-family="Arial" font-size="10.00" fill="#5f6b75">packages/cli</text>
</g>
<!-- cli&#45;&gt;sdk -->
<g id="edge4" class="edge">
<title>cli&#45;&gt;sdk</title>
<path fill="none" stroke="#9d988e" stroke-width="1.25" d="M91.75,-235.16C91.75,-177.02 91.75,-57 91.75,-57 91.75,-57 222.11,-57 222.11,-57"/>
<polygon fill="#9d988e" stroke="#9d988e" stroke-width="1.25" points="222.11,-59.28 228.61,-57 222.11,-54.73 222.11,-59.28"/>
</g>
<!-- contracts -->
<g id="node9" class="node">
<title>contracts</title>
<path fill="#fffefd" stroke="none" stroke-width="1.35" d="M772.5,-524C772.5,-524 644,-524 644,-524 638,-524 632,-518 632,-512 632,-512 632,-474 632,-474 632,-468 638,-462 644,-462 644,-462 772.5,-462 772.5,-462 778.5,-462 784.5,-468 784.5,-474 784.5,-474 784.5,-512 784.5,-512 784.5,-518 778.5,-524 772.5,-524"/>
<polygon fill="#ddf0d6" stroke="none" points="632,-490 632,-524 784.5,-524 784.5,-490 632,-490"/>
<text text-anchor="start" x="640" y="-502.75" font-family="Arial" font-weight="bold" font-size="15.00">@marble/contracts</text>
<text text-anchor="start" x="665.5" y="-472.5" font-family="Arial" font-size="10.00" fill="#5e6d59">packages/contracts</text>
</g>
<!-- cli&#45;&gt;contracts -->
<g id="edge3" class="edge">
<title>cli&#45;&gt;contracts</title>
<path fill="none" stroke="#9d988e" stroke-width="1.25" d="M91.75,-296.84C91.75,-308.27 91.75,-318.5 91.75,-318.5 91.75,-318.5 639.75,-318.5 639.75,-318.5 639.75,-318.5 639.75,-453.81 639.75,-453.81"/>
<polygon fill="#9d988e" stroke="#9d988e" stroke-width="1.25" points="637.48,-453.81 639.75,-460.31 642.03,-453.81 637.48,-453.81"/>
</g>
<!-- executor -->
<g id="node3" class="node">
<title>executor</title>
<path fill="#fffefd" stroke="none" stroke-width="1.35" d="M548,-402C548,-402 424.75,-402 424.75,-402 418.75,-402 412.75,-396 412.75,-390 412.75,-390 412.75,-352 412.75,-352 412.75,-346 418.75,-340 424.75,-340 424.75,-340 548,-340 548,-340 554,-340 560,-346 560,-352 560,-352 560,-390 560,-390 560,-396 554,-402 548,-402"/>
<polygon fill="#dceeff" stroke="none" points="412.75,-368 412.75,-402 560,-402 560,-368 412.75,-368"/>
<text text-anchor="start" x="420.75" y="-380.75" font-family="Arial" font-weight="bold" font-size="15.00">@marble/executor</text>
<text text-anchor="start" x="455.62" y="-350.5" font-family="Arial" font-size="10.00" fill="#5f6b75">apps/executor</text>
</g>
<!-- store -->
<g id="node7" class="node">
<title>store</title>
<path fill="#fffefd" stroke="none" stroke-width="1.35" d="M757.12,-88C757.12,-88 659.38,-88 659.38,-88 653.38,-88 647.38,-82 647.38,-76 647.38,-76 647.38,-38 647.38,-38 647.38,-32 653.38,-26 659.38,-26 659.38,-26 757.12,-26 757.12,-26 763.12,-26 769.12,-32 769.12,-38 769.12,-38 769.12,-76 769.12,-76 769.12,-82 763.12,-88 757.12,-88"/>
<polygon fill="#fff1b8" stroke="none" points="647.38,-54 647.38,-88 769.12,-88 769.12,-54 647.38,-54"/>
<text text-anchor="start" x="655.38" y="-66.75" font-family="Arial" font-weight="bold" font-size="15.00">@marble/store</text>
<text text-anchor="start" x="674.88" y="-36.5" font-family="Arial" font-size="10.00" fill="#6b664f">packages/store</text>
</g>
<!-- executor&#45;&gt;store -->
<g id="edge6" class="edge">
<title>executor&#45;&gt;store</title>
<path fill="none" stroke="#9d988e" stroke-width="1.25" d="M559.78,-360.67C624.22,-360.67 707.75,-360.67 707.75,-360.67 707.75,-360.67 707.75,-96.18 707.75,-96.18"/>
<polygon fill="#9d988e" stroke="#9d988e" stroke-width="1.25" points="710.03,-96.18 707.75,-89.68 705.48,-96.18 710.03,-96.18"/>
</g>
<!-- executor&#45;&gt;contracts -->
<g id="edge5" class="edge">
<title>executor&#45;&gt;contracts</title>
<path fill="none" stroke="#9d988e" stroke-width="1.25" d="M559.75,-381.33C597.53,-381.33 635.75,-381.33 635.75,-381.33 635.75,-381.33 635.75,-453.8 635.75,-453.8"/>
<polygon fill="#9d988e" stroke="#9d988e" stroke-width="1.25" points="633.48,-453.8 635.75,-460.3 638.03,-453.8 633.48,-453.8"/>
</g>
<!-- ingestor -->
<g id="node4" class="node">
<title>ingestor</title>
<path fill="#fffefd" stroke="none" stroke-width="1.35" d="M546.5,-297C546.5,-297 426.25,-297 426.25,-297 420.25,-297 414.25,-291 414.25,-285 414.25,-285 414.25,-247 414.25,-247 414.25,-241 420.25,-235 426.25,-235 426.25,-235 546.5,-235 546.5,-235 552.5,-235 558.5,-241 558.5,-247 558.5,-247 558.5,-285 558.5,-285 558.5,-291 552.5,-297 546.5,-297"/>
<polygon fill="#dceeff" stroke="none" points="414.25,-263 414.25,-297 558.5,-297 558.5,-263 414.25,-263"/>
<text text-anchor="start" x="422.25" y="-275.75" font-family="Arial" font-weight="bold" font-size="15.00">@marble/ingestor</text>
<text text-anchor="start" x="457.12" y="-245.5" font-family="Arial" font-size="10.00" fill="#5f6b75">apps/ingestor</text>
</g>
<!-- ingestor&#45;&gt;store -->
<g id="edge7" class="edge">
<title>ingestor&#45;&gt;store</title>
<path fill="none" stroke="#9d988e" stroke-width="1.25" d="M548.75,-235.34C548.75,-180.78 548.75,-72.5 548.75,-72.5 548.75,-72.5 639.1,-72.5 639.1,-72.5"/>
<polygon fill="#9d988e" stroke="#9d988e" stroke-width="1.25" points="639.1,-74.78 645.6,-72.5 639.1,-70.23 639.1,-74.78"/>
</g>
<!-- api -->
<g id="node6" class="node">
<title>api</title>
<path fill="#fffefd" stroke="none" stroke-width="1.35" d="M527.75,-88C527.75,-88 445,-88 445,-88 439,-88 433,-82 433,-76 433,-76 433,-38 433,-38 433,-32 439,-26 445,-26 445,-26 527.75,-26 527.75,-26 533.75,-26 539.75,-32 539.75,-38 539.75,-38 539.75,-76 539.75,-76 539.75,-82 533.75,-88 527.75,-88"/>
<polygon fill="#fff1b8" stroke="none" points="433,-54 433,-88 539.75,-88 539.75,-54 433,-54"/>
<text text-anchor="start" x="441" y="-66.75" font-family="Arial" font-weight="bold" font-size="15.00">@marble/api</text>
<text text-anchor="start" x="457.5" y="-36.5" font-family="Arial" font-size="10.00" fill="#6b664f">packages/api</text>
</g>
<!-- sdk&#45;&gt;api -->
<g id="edge8" class="edge">
<title>sdk&#45;&gt;api</title>
<path fill="none" stroke="#9d988e" stroke-width="1.25" d="M340.66,-57C340.66,-57 424.68,-57 424.68,-57"/>
<polygon fill="#9d988e" stroke="#9d988e" stroke-width="1.25" points="424.68,-59.28 431.18,-57 424.68,-54.73 424.68,-59.28"/>
</g>
<!-- api&#45;&gt;store -->
<g id="edge10" class="edge">
<title>api&#45;&gt;store</title>
<path fill="none" stroke="#9d988e" stroke-width="1.25" d="M539.52,-41.5C539.52,-41.5 639.31,-41.5 639.31,-41.5"/>
<polygon fill="#9d988e" stroke="#9d988e" stroke-width="1.25" points="639.31,-43.78 645.81,-41.5 639.31,-39.23 639.31,-43.78"/>
</g>
<!-- api&#45;&gt;contracts -->
<g id="edge9" class="edge">
<title>api&#45;&gt;contracts</title>
<path fill="none" stroke="#9d988e" stroke-width="1.25" d="M539.65,-57C585.31,-57 643.75,-57 643.75,-57 643.75,-57 643.75,-453.95 643.75,-453.95"/>
<polygon fill="#9d988e" stroke="#9d988e" stroke-width="1.25" points="641.48,-453.95 643.75,-460.45 646.03,-453.95 641.48,-453.95"/>
</g>
<!-- keys -->
<g id="node8" class="node">
<title>keys</title>
<path fill="#fffefd" stroke="none" stroke-width="1.35" d="M962.5,-88C962.5,-88 868.5,-88 868.5,-88 862.5,-88 856.5,-82 856.5,-76 856.5,-76 856.5,-38 856.5,-38 856.5,-32 862.5,-26 868.5,-26 868.5,-26 962.5,-26 962.5,-26 968.5,-26 974.5,-32 974.5,-38 974.5,-38 974.5,-76 974.5,-76 974.5,-82 968.5,-88 962.5,-88"/>
<polygon fill="#fff1b8" stroke="none" points="856.5,-54 856.5,-88 974.5,-88 974.5,-54 856.5,-54"/>
<text text-anchor="start" x="864.5" y="-66.75" font-family="Arial" font-weight="bold" font-size="15.00">@marble/keys</text>
<text text-anchor="start" x="882.5" y="-36.5" font-family="Arial" font-size="10.00" fill="#6b664f">packages/keys</text>
</g>
<!-- store&#45;&gt;keys -->
<g id="edge11" class="edge">
<title>store&#45;&gt;keys</title>
<path fill="none" stroke="#9d988e" stroke-width="1.25" d="M769.03,-46.67C769.03,-46.67 848.11,-46.67 848.11,-46.67"/>
<polygon fill="#9d988e" stroke="#9d988e" stroke-width="1.25" points="848.11,-48.94 854.61,-46.67 848.11,-44.39 848.11,-48.94"/>
</g>
<!-- lib -->
<g id="node10" class="node">
<title>lib</title>
<path fill="#fffefd" stroke="none" stroke-width="1.35" d="M955,-524C955,-524 876,-524 876,-524 870,-524 864,-518 864,-512 864,-512 864,-474 864,-474 864,-468 870,-462 876,-462 876,-462 955,-462 955,-462 961,-462 967,-468 967,-474 967,-474 967,-512 967,-512 967,-518 961,-524 955,-524"/>
<polygon fill="#ddf0d6" stroke="none" points="864,-490 864,-524 967,-524 967,-490 864,-490"/>
<text text-anchor="start" x="872" y="-502.75" font-family="Arial" font-weight="bold" font-size="15.00">@marble/lib</text>
<text text-anchor="start" x="888.12" y="-472.5" font-family="Arial" font-size="10.00" fill="#5e6d59">packages/lib</text>
</g>
<!-- store&#45;&gt;lib -->
<g id="edge12" class="edge">
<title>store&#45;&gt;lib</title>
<path fill="none" stroke="#9d988e" stroke-width="1.25" d="M769.11,-67.33C795.62,-67.33 820.75,-67.33 820.75,-67.33 820.75,-67.33 820.75,-493 820.75,-493 820.75,-493 855.85,-493 855.85,-493"/>
<polygon fill="#9d988e" stroke="#9d988e" stroke-width="1.25" points="855.85,-495.28 862.35,-493 855.85,-490.73 855.85,-495.28"/>
</g>
<!-- supabase -->
<g id="node11" class="node">
<title>supabase</title>
<path fill="#fffefd" stroke="none" stroke-width="1.35" d="M1187.75,-524C1187.75,-524 1058.5,-524 1058.5,-524 1052.5,-524 1046.5,-518 1046.5,-512 1046.5,-512 1046.5,-474 1046.5,-474 1046.5,-468 1052.5,-462 1058.5,-462 1058.5,-462 1187.75,-462 1187.75,-462 1193.75,-462 1199.75,-468 1199.75,-474 1199.75,-474 1199.75,-512 1199.75,-512 1199.75,-518 1193.75,-524 1187.75,-524"/>
<polygon fill="#ddf0d6" stroke="none" points="1046.5,-490 1046.5,-524 1199.75,-524 1199.75,-490 1046.5,-490"/>
<text text-anchor="start" x="1054.5" y="-502.75" font-family="Arial" font-weight="bold" font-size="15.00">@marble/supabase</text>
<text text-anchor="start" x="1102.12" y="-472.5" font-family="Arial" font-size="10.00" fill="#5e6d59">supabase</text>
</g>
<!-- keys&#45;&gt;supabase -->
<g id="edge13" class="edge">
<title>keys&#45;&gt;supabase</title>
<path fill="none" stroke="#9d988e" stroke-width="1.25" d="M970.75,-87.66C970.75,-186.9 970.75,-493 970.75,-493 970.75,-493 1038.55,-493 1038.55,-493"/>
<polygon fill="#9d988e" stroke="#9d988e" stroke-width="1.25" points="1038.55,-495.28 1045.05,-493 1038.55,-490.73 1038.55,-495.28"/>
</g>
<!-- wizard -->
<g id="node13" class="node">
<title>wizard</title>
<path fill="#fffefd" stroke="none" stroke-width="1.35" d="M146.25,-524C146.25,-524 38,-524 38,-524 32,-524 26,-518 26,-512 26,-512 26,-474 26,-474 26,-468 32,-462 38,-462 38,-462 146.25,-462 146.25,-462 152.25,-462 158.25,-468 158.25,-474 158.25,-474 158.25,-512 158.25,-512 158.25,-518 152.25,-524 146.25,-524"/>
<polygon fill="#fde0dc" stroke="none" points="26,-490 26,-524 158.25,-524 158.25,-490 26,-490"/>
<text text-anchor="start" x="34" y="-502.75" font-family="Arial" font-weight="bold" font-size="15.00">@marble/wizard</text>
<text text-anchor="start" x="55.38" y="-472.5" font-family="Arial" font-size="10.00" fill="#7a5c58">packages/wizard</text>
</g>
</g>
</svg>
