<?xml version="1.0" encoding="UTF-8" standalone="no"?>
<!DOCTYPE svg PUBLIC "-//W3C//DTD SVG 1.1//EN"
 "http://www.w3.org/Graphics/SVG/1.1/DTD/svg11.dtd">
<!-- Generated by graphviz version 12.2.1 (20241206.2353)
 -->
<!-- Title: MarbleDependencyGraph Pages: 1 -->
<svg width="1289pt" height="611pt"
 viewBox="17.28 17.28 1271.83 593.33" xmlns="http://www.w3.org/2000/svg" xmlns:xlink="http://www.w3.org/1999/xlink">
<g id="graph0" class="graph" transform="scale(1 1) rotate(0) translate(31.68 578.93)">
<title>MarbleDependencyGraph</title>
<polygon fill="#fbfaf7" stroke="none" points="-14.4,14.4 -14.4,-561.65 1240.15,-561.65 1240.15,14.4 -14.4,14.4"/>
<text text-anchor="start" x="383" y="-517.55" font-family="Arial" font-weight="bold" font-size="26.00">Marble workspace dependency graph</text>
<text text-anchor="start" x="441.5" y="-495.85" font-family="Arial" font-size="12.00" fill="#6f6a60">Transitive&#45;reduced workspace package graph from package.json</text>
<g id="clust1" class="cluster">
<title>cluster_entrypoints</title>
<path fill="#eef6fb" stroke="#d6e3f0" stroke-width="1.2" d="M29,-130C29,-130 566,-130 566,-130 572,-130 578,-136 578,-142 578,-142 578,-345 578,-345 578,-351 572,-357 566,-357 566,-357 29,-357 29,-357 23,-357 17,-351 17,-345 17,-345 17,-142 17,-142 17,-136 23,-130 29,-130"/>
<text text-anchor="middle" x="297.5" y="-339.7" font-family="Arial" font-size="14.00">Entrypoints</text>
</g>
<g id="clust2" class="cluster">
<title>cluster_core</title>
<path fill="#f6f2df" stroke="#dfdcc8" stroke-width="1.2" d="M224.25,-8C224.25,-8 980.5,-8 980.5,-8 986.5,-8 992.5,-14 992.5,-20 992.5,-20 992.5,-118 992.5,-118 992.5,-124 986.5,-130 980.5,-130 980.5,-130 224.25,-130 224.25,-130 218.25,-130 212.25,-124 212.25,-118 212.25,-118 212.25,-20 212.25,-20 212.25,-14 218.25,-8 224.25,-8"/>
<text text-anchor="middle" x="602.38" y="-112.7" font-family="Arial" font-size="14.00">Core runtime</text>
</g>
<g id="clust3" class="cluster">
<title>cluster_foundation</title>
<path fill="#eff7ed" stroke="#d7e4d4" stroke-width="1.2" d="M230.25,-357C230.25,-357 1205.75,-357 1205.75,-357 1211.75,-357 1217.75,-363 1217.75,-369 1217.75,-369 1217.75,-467 1217.75,-467 1217.75,-473 1211.75,-479 1205.75,-479 1205.75,-479 230.25,-479 230.25,-479 224.25,-479 218.25,-473 218.25,-467 218.25,-467 218.25,-369 218.25,-369 218.25,-363 224.25,-357 230.25,-357"/>
<text text-anchor="middle" x="718" y="-461.7" font-family="Arial" font-size="14.00">Foundation</text>
</g>
<g id="clust4" class="cluster">
<title>cluster_unwired</title>
<path fill="#fbefed" stroke="#e9d4d2" stroke-width="1.2" d="M20,-357C20,-357 164.25,-357 164.25,-357 170.25,-357 176.25,-363 176.25,-369 176.25,-369 176.25,-467 176.25,-467 176.25,-473 170.25,-479 164.25,-479 164.25,-479 20,-479 20,-479 14,-479 8,-473 8,-467 8,-467 8,-369 8,-369 8,-363 14,-357 20,-357"/>
<text text-anchor="middle" x="92.12" y="-461.7" font-family="Arial" font-size="14.00">Currently isolated</text>
</g>
<!-- web -->
<g id="node1" class="node">
<title>web</title>
<path fill="#fffefd" stroke="none" stroke-width="1.35" d="M137.25,-315C137.25,-315 47,-315 47,-315 41,-315 35,-309 35,-303 35,-303 35,-265 35,-265 35,-259 41,-253 47,-253 47,-253 137.25,-253 137.25,-253 143.25,-253 149.25,-259 149.25,-265 149.25,-265 149.25,-303 149.25,-303 149.25,-309 143.25,-315 137.25,-315"/>
<polygon fill="#dceeff" stroke="none" points="35,-281 35,-315 149.25,-315 149.25,-281 35,-281"/>
<text text-anchor="start" x="43" y="-293.75" font-family="Arial" font-weight="bold" font-size="15.00">@marble/web</text>
<text text-anchor="start" x="71.12" y="-263.5" font-family="Arial" font-size="10.00" fill="#5f6b75">apps/web</text>
</g>
<!-- sdk -->
<g id="node5" class="node">
<title>sdk</title>
<path fill="#fffefd" stroke="none" stroke-width="1.35" d="M328.75,-88C328.75,-88 242.25,-88 242.25,-88 236.25,-88 230.25,-82 230.25,-76 230.25,-76 230.25,-38 230.25,-38 230.25,-32 236.25,-26 242.25,-26 242.25,-26 328.75,-26 328.75,-26 334.75,-26 340.75,-32 340.75,-38 340.75,-38 340.75,-76 340.75,-76 340.75,-82 334.75,-88 328.75,-88"/>
<polygon fill="#fff1b8" stroke="none" points="230.25,-54 230.25,-88 340.75,-88 340.75,-54 230.25,-54"/>
<text text-anchor="start" x="238.25" y="-66.75" font-family="Arial" font-weight="bold" font-size="15.00">@marble/sdk</text>
<text text-anchor="start" x="255.12" y="-36.5" font-family="Arial" font-size="10.00" fill="#6b664f">packages/sdk</text>
</g>
<!-- web&#45;&gt;sdk -->
<g id="edge1" class="edge">
<title>web&#45;&gt;sdk</title>
<path fill="none" stroke="#9d988e" stroke-width="1.25" d="M148.98,-273.67C200.62,-273.67 268.75,-273.67 268.75,-273.67 268.75,-273.67 268.75,-95.98 268.75,-95.98"/>
<polygon fill="#9d988e" stroke="#9d988e" stroke-width="1.25" points="271.03,-95.98 268.75,-89.48 266.48,-95.98 271.03,-95.98"/>
</g>
<!-- ui -->
<g id="node12" class="node">
<title>ui</title>
<path fill="#fffefd" stroke="none" stroke-width="1.35" d="M322.75,-437C322.75,-437 248.25,-437 248.25,-437 242.25,-437 236.25,-431 236.25,-425 236.25,-425 236.25,-387 236.25,-387 236.25,-381 242.25,-375 248.25,-375 248.25,-375 322.75,-375 322.75,-375 328.75,-375 334.75,-381 334.75,-387 334.75,-387 334.75,-425 334.75,-425 334.75,-431 328.75,-437 322.75,-437"/>
<polygon fill="#ddf0d6" stroke="none" points="236.25,-403 236.25,-437 334.75,-437 334.75,-403 236.25,-403"/>
<text text-anchor="start" x="244.25" y="-415.75" font-family="Arial" font-weight="bold" font-size="15.00">@marble/ui</text>
<text text-anchor="start" x="259.25" y="-385.5" font-family="Arial" font-size="10.00" fill="#5e6d59">packages/ui</text>
</g>
<!-- web&#45;&gt;ui -->
<g id="edge2" class="edge">
<title>web&#45;&gt;ui</title>
<path fill="none" stroke="#9d988e" stroke-width="1.25" d="M149.13,-294.33C211.2,-294.33 301.75,-294.33 301.75,-294.33 301.75,-294.33 301.75,-366.8 301.75,-366.8"/>
<polygon fill="#9d988e" stroke="#9d988e" stroke-width="1.25" points="299.48,-366.8 301.75,-373.3 304.03,-366.8 299.48,-366.8"/>
</g>
<!-- cli -->
<g id="node2" class="node">
<title>cli</title>
<path fill="#fffefd" stroke="none" stroke-width="1.35" d="M131.25,-210C131.25,-210 53,-210 53,-210 47,-210 41,-204 41,-198 41,-198 41,-160 41,-160 41,-154 47,-148 53,-148 53,-148 131.25,-148 131.25,-148 137.25,-148 143.25,-154 143.25,-160 143.25,-160 143.25,-198 143.25,-198 143.25,-204 137.25,-210 131.25,-210"/>
<polygon fill="#dceeff" stroke="none" points="41,-176 41,-210 143.25,-210 143.25,-176 41,-176"/>
<text text-anchor="start" x="49" y="-188.75" font-family="Arial" font-weight="bold" font-size="15.00">@marble/cli</text>
<text text-anchor="start" x="64.75" y="-158.5" font-family="Arial" font-size="10.00" fill="#5f6b75">packages/cli</text>
</g>
<!-- cli&#45;&gt;sdk -->
<g id="edge3" class="edge">
<title>cli&#45;&gt;sdk</title>
<path fill="none" stroke="#9d988e" stroke-width="1.25" d="M91.75,-148.21C91.75,-112.07 91.75,-57 91.75,-57 91.75,-57 222.11,-57 222.11,-57"/>
<polygon fill="#9d988e" stroke="#9d988e" stroke-width="1.25" points="222.11,-59.28 228.61,-57 222.11,-54.73 222.11,-59.28"/>
</g>
<!-- executor -->
<g id="node3" class="node">
<title>executor</title>
<path fill="#fffefd" stroke="none" stroke-width="1.35" d="M548,-315C548,-315 424.75,-315 424.75,-315 418.75,-315 412.75,-309 412.75,-303 412.75,-303 412.75,-265 412.75,-265 412.75,-259 418.75,-253 424.75,-253 424.75,-253 548,-253 548,-253 554,-253 560,-259 560,-265 560,-265 560,-303 560,-303 560,-309 554,-315 548,-315"/>
<polygon fill="#dceeff" stroke="none" points="412.75,-281 412.75,-315 560,-315 560,-281 412.75,-281"/>
<text text-anchor="start" x="420.75" y="-293.75" font-family="Arial" font-weight="bold" font-size="15.00">@marble/executor</text>
<text text-anchor="start" x="455.62" y="-263.5" font-family="Arial" font-size="10.00" fill="#5f6b75">apps/executor</text>
</g>
<!-- store -->
<g id="node7" class="node">
<title>store</title>
<path fill="#fffefd" stroke="none" stroke-width="1.35" d="M757.12,-88C757.12,-88 659.38,-88 659.38,-88 653.38,-88 647.38,-82 647.38,-76 647.38,-76 647.38,-38 647.38,-38 647.38,-32 653.38,-26 659.38,-26 659.38,-26 757.12,-26 757.12,-26 763.12,-26 769.12,-32 769.12,-38 769.12,-38 769.12,-76 769.12,-76 769.12,-82 763.12,-88 757.12,-88"/>
<polygon fill="#fff1b8" stroke="none" points="647.38,-54 647.38,-88 769.12,-88 769.12,-54 647.38,-54"/>
<text text-anchor="start" x="655.38" y="-66.75" font-family="Arial" font-weight="bold" font-size="15.00">@marble/store</text>
<text text-anchor="start" x="674.88" y="-36.5" font-family="Arial" font-size="10.00" fill="#6b664f">packages/store</text>
</g>
<!-- executor&#45;&gt;store -->
<g id="edge5" class="edge">
<title>executor&#45;&gt;store</title>
<path fill="none" stroke="#9d988e" stroke-width="1.25" d="M559.78,-273.67C624.22,-273.67 707.75,-273.67 707.75,-273.67 707.75,-273.67 707.75,-95.98 707.75,-95.98"/>
<polygon fill="#9d988e" stroke="#9d988e" stroke-width="1.25" points="710.03,-95.98 707.75,-89.48 705.48,-95.98 710.03,-95.98"/>
</g>
<!-- contracts -->
<g id="node9" class="node">
<title>contracts</title>
<path fill="#fffefd" stroke="none" stroke-width="1.35" d="M772.5,-437C772.5,-437 644,-437 644,-437 638,-437 632,-431 632,-425 632,-425 632,-387 632,-387 632,-381 638,-375 644,-375 644,-375 772.5,-375 772.5,-375 778.5,-375 784.5,-381 784.5,-387 784.5,-387 784.5,-425 784.5,-425 784.5,-431 778.5,-437 772.5,-437"/>
<polygon fill="#ddf0d6" stroke="none" points="632,-403 632,-437 784.5,-437 784.5,-403 632,-403"/>
<text text-anchor="start" x="640" y="-415.75" font-family="Arial" font-weight="bold" font-size="15.00">@marble/contracts</text>
<text text-anchor="start" x="665.5" y="-385.5" font-family="Arial" font-size="10.00" fill="#5e6d59">packages/contracts</text>
</g>
<!-- executor&#45;&gt;contracts -->
<g id="edge4" class="edge">
<title>executor&#45;&gt;contracts</title>
<path fill="none" stroke="#9d988e" stroke-width="1.25" d="M559.8,-294.33C597.97,-294.33 636.75,-294.33 636.75,-294.33 636.75,-294.33 636.75,-366.8 636.75,-366.8"/>
<polygon fill="#9d988e" stroke="#9d988e" stroke-width="1.25" points="634.48,-366.8 636.75,-373.3 639.03,-366.8 634.48,-366.8"/>
</g>
<!-- ingestor -->
<g id="node4" class="node">
<title>ingestor</title>
<path fill="#fffefd" stroke="none" stroke-width="1.35" d="M546.5,-210C546.5,-210 426.25,-210 426.25,-210 420.25,-210 414.25,-204 414.25,-198 414.25,-198 414.25,-160 414.25,-160 414.25,-154 420.25,-148 426.25,-148 426.25,-148 546.5,-148 546.5,-148 552.5,-148 558.5,-154 558.5,-160 558.5,-160 558.5,-198 558.5,-198 558.5,-204 552.5,-210 546.5,-210"/>
<polygon fill="#dceeff" stroke="none" points="414.25,-176 414.25,-210 558.5,-210 558.5,-176 414.25,-176"/>
<text text-anchor="start" x="422.25" y="-188.75" font-family="Arial" font-weight="bold" font-size="15.00">@marble/ingestor</text>
<text text-anchor="start" x="457.12" y="-158.5" font-family="Arial" font-size="10.00" fill="#5f6b75">apps/ingestor</text>
</g>
<!-- ingestor&#45;&gt;store -->
<g id="edge6" class="edge">
<title>ingestor&#45;&gt;store</title>
<path fill="none" stroke="#9d988e" stroke-width="1.25" d="M548.75,-148.2C548.75,-116.74 548.75,-72.5 548.75,-72.5 548.75,-72.5 639.1,-72.5 639.1,-72.5"/>
<polygon fill="#9d988e" stroke="#9d988e" stroke-width="1.25" points="639.1,-74.78 645.6,-72.5 639.1,-70.23 639.1,-74.78"/>
</g>
<!-- api -->
<g id="node6" class="node">
<title>api</title>
<path fill="#fffefd" stroke="none" stroke-width="1.35" d="M527.75,-88C527.75,-88 445,-88 445,-88 439,-88 433,-82 433,-76 433,-76 433,-38 433,-38 433,-32 439,-26 445,-26 445,-26 527.75,-26 527.75,-26 533.75,-26 539.75,-32 539.75,-38 539.75,-38 539.75,-76 539.75,-76 539.75,-82 533.75,-88 527.75,-88"/>
<polygon fill="#fff1b8" stroke="none" points="433,-54 433,-88 539.75,-88 539.75,-54 433,-54"/>
<text text-anchor="start" x="441" y="-66.75" font-family="Arial" font-weight="bold" font-size="15.00">@marble/api</text>
<text text-anchor="start" x="457.5" y="-36.5" font-family="Arial" font-size="10.00" fill="#6b664f">packages/api</text>
</g>
<!-- sdk&#45;&gt;api -->
<g id="edge7" class="edge">
<title>sdk&#45;&gt;api</title>
<path fill="none" stroke="#9d988e" stroke-width="1.25" d="M340.66,-57C340.66,-57 424.68,-57 424.68,-57"/>
<polygon fill="#9d988e" stroke="#9d988e" stroke-width="1.25" points="424.68,-59.28 431.18,-57 424.68,-54.73 424.68,-59.28"/>
</g>
<!-- api&#45;&gt;store -->
<g id="edge9" class="edge">
<title>api&#45;&gt;store</title>
<path fill="none" stroke="#9d988e" stroke-width="1.25" d="M539.52,-41.5C539.52,-41.5 639.31,-41.5 639.31,-41.5"/>
<polygon fill="#9d988e" stroke="#9d988e" stroke-width="1.25" points="639.31,-43.78 645.81,-41.5 639.31,-39.23 639.31,-43.78"/>
</g>
<!-- api&#45;&gt;contracts -->
<g id="edge8" class="edge">
<title>api&#45;&gt;contracts</title>
<path fill="none" stroke="#9d988e" stroke-width="1.25" d="M539.41,-57C584.42,-57 641.75,-57 641.75,-57 641.75,-57 641.75,-366.64 641.75,-366.64"/>
<polygon fill="#9d988e" stroke="#9d988e" stroke-width="1.25" points="639.48,-366.64 641.75,-373.14 644.03,-366.64 639.48,-366.64"/>
</g>
<!-- keys -->
<g id="node8" class="node">
<title>keys</title>
<path fill="#fffefd" stroke="none" stroke-width="1.35" d="M962.5,-88C962.5,-88 868.5,-88 868.5,-88 862.5,-88 856.5,-82 856.5,-76 856.5,-76 856.5,-38 856.5,-38 856.5,-32 862.5,-26 868.5,-26 868.5,-26 962.5,-26 962.5,-26 968.5,-26 974.5,-32 974.5,-38 974.5,-38 974.5,-76 974.5,-76 974.5,-82 968.5,-88 962.5,-88"/>
<polygon fill="#fff1b8" stroke="none" points="856.5,-54 856.5,-88 974.5,-88 974.5,-54 856.5,-54"/>
<text text-anchor="start" x="864.5" y="-66.75" font-family="Arial" font-weight="bold" font-size="15.00">@marble/keys</text>
<text text-anchor="start" x="882.5" y="-36.5" font-family="Arial" font-size="10.00" fill="#6b664f">packages/keys</text>
</g>
<!-- store&#45;&gt;keys -->
<g id="edge10" class="edge">
<title>store&#45;&gt;keys</title>
<path fill="none" stroke="#9d988e" stroke-width="1.25" d="M769.03,-46.67C769.03,-46.67 848.11,-46.67 848.11,-46.67"/>
<polygon fill="#9d988e" stroke="#9d988e" stroke-width="1.25" points="848.11,-48.94 854.61,-46.67 848.11,-44.39 848.11,-48.94"/>
</g>
<!-- lib -->
<g id="node10" class="node">
<title>lib</title>
<path fill="#fffefd" stroke="none" stroke-width="1.35" d="M955,-437C955,-437 876,-437 876,-437 870,-437 864,-431 864,-425 864,-425 864,-387 864,-387 864,-381 870,-375 876,-375 876,-375 955,-375 955,-375 961,-375 967,-381 967,-387 967,-387 967,-425 967,-425 967,-431 961,-437 955,-437"/>
<polygon fill="#ddf0d6" stroke="none" points="864,-403 864,-437 967,-437 967,-403 864,-403"/>
<text text-anchor="start" x="872" y="-415.75" font-family="Arial" font-weight="bold" font-size="15.00">@marble/lib</text>
<text text-anchor="start" x="888.12" y="-385.5" font-family="Arial" font-size="10.00" fill="#5e6d59">packages/lib</text>
</g>
<!-- store&#45;&gt;lib -->
<g id="edge11" class="edge">
<title>store&#45;&gt;lib</title>
<path fill="none" stroke="#9d988e" stroke-width="1.25" d="M769.11,-67.33C795.62,-67.33 820.75,-67.33 820.75,-67.33 820.75,-67.33 820.75,-406 820.75,-406 820.75,-406 855.85,-406 855.85,-406"/>
<polygon fill="#9d988e" stroke="#9d988e" stroke-width="1.25" points="855.85,-408.28 862.35,-406 855.85,-403.73 855.85,-408.28"/>
</g>
<!-- supabase -->
<g id="node11" class="node">
<title>supabase</title>
<path fill="#fffefd" stroke="none" stroke-width="1.35" d="M1187.75,-437C1187.75,-437 1058.5,-437 1058.5,-437 1052.5,-437 1046.5,-431 1046.5,-425 1046.5,-425 1046.5,-387 1046.5,-387 1046.5,-381 1052.5,-375 1058.5,-375 1058.5,-375 1187.75,-375 1187.75,-375 1193.75,-375 1199.75,-381 1199.75,-387 1199.75,-387 1199.75,-425 1199.75,-425 1199.75,-431 1193.75,-437 1187.75,-437"/>
<polygon fill="#ddf0d6" stroke="none" points="1046.5,-403 1046.5,-437 1199.75,-437 1199.75,-403 1046.5,-403"/>
<text text-anchor="start" x="1054.5" y="-415.75" font-family="Arial" font-weight="bold" font-size="15.00">@marble/supabase</text>
<text text-anchor="start" x="1102.12" y="-385.5" font-family="Arial" font-size="10.00" fill="#5e6d59">supabase</text>
</g>
<!-- keys&#45;&gt;supabase -->
<g id="edge12" class="edge">
<title>keys&#45;&gt;supabase</title>
<path fill="none" stroke="#9d988e" stroke-width="1.25" d="M970.75,-87.97C970.75,-173.38 970.75,-406 970.75,-406 970.75,-406 1038.55,-406 1038.55,-406"/>
<polygon fill="#9d988e" stroke="#9d988e" stroke-width="1.25" points="1038.55,-408.28 1045.05,-406 1038.55,-403.73 1038.55,-408.28"/>
</g>
<!-- wizard -->
<g id="node13" class="node">
<title>wizard</title>
<path fill="#fffefd" stroke="none" stroke-width="1.35" d="M146.25,-437C146.25,-437 38,-437 38,-437 32,-437 26,-431 26,-425 26,-425 26,-387 26,-387 26,-381 32,-375 38,-375 38,-375 146.25,-375 146.25,-375 152.25,-375 158.25,-381 158.25,-387 158.25,-387 158.25,-425 158.25,-425 158.25,-431 152.25,-437 146.25,-437"/>
<polygon fill="#fde0dc" stroke="none" points="26,-403 26,-437 158.25,-437 158.25,-403 26,-403"/>
<text text-anchor="start" x="34" y="-415.75" font-family="Arial" font-weight="bold" font-size="15.00">@marble/wizard</text>
<text text-anchor="start" x="55.38" y="-385.5" font-family="Arial" font-size="10.00" fill="#7a5c58">packages/wizard</text>
</g>
</g>
</svg>
